<svg xmlns="http://www.w3.org/2000/svg" xmlns:xlink="http://www.w3.org/1999/xlink" width="100" zoomAndPan="magnify" viewBox="0 0 75 74.999997" height="100" preserveAspectRatio="xMidYMid meet" version="1.0"><defs><g/><clipPath id="6cbf831205"><path d="M 7.5 15 L 39 15 L 39 46.863281 L 7.5 46.863281 Z M 7.5 15 " clip-rule="nonzero"/></clipPath><clipPath id="82bc7c89ef"><path d="M 29 1.113281 L 60.75 1.113281 L 60.75 46.863281 L 29 46.863281 Z M 29 1.113281 " clip-rule="nonzero"/></clipPath><clipPath id="2f288d840c"><path d="M 7.5 43 L 34 43 L 34 46.863281 L 7.5 46.863281 Z M 7.5 43 " clip-rule="nonzero"/></clipPath><clipPath id="ce7e011b95"><path d="M 29 7 L 60.75 7 L 60.75 46.863281 L 29 46.863281 Z M 29 7 " clip-rule="nonzero"/></clipPath><clipPath id="167ce0ea10"><path d="M 29 1.113281 L 35 1.113281 L 35 9 L 29 9 Z M 29 1.113281 " clip-rule="nonzero"/></clipPath></defs><g clip-path="url(#6cbf831205)"><path fill="#38b6ff" d="M 34.125 15.953125 L 25.496094 15.953125 L 7.5 46.839844 L 33.390625 46.839844 L 38.441406 38.171875 L 34.859375 32.027344 L 34.125 30.765625 L 33.390625 32.027344 L 29.074219 39.433594 L 20.445312 39.433594 Z M 34.125 15.953125 " fill-opacity="1" fill-rule="evenodd"/></g><g clip-path="url(#82bc7c89ef)"><path fill="#83858c" d="M 60.75 46.839844 L 34.125 1.136719 L 29.808594 8.546875 L 31.796875 11.953125 L 34.125 15.953125 L 36.492188 20.015625 L 47.804688 39.433594 L 50.132812 43.429688 L 52.121094 46.839844 Z M 60.75 46.839844 " fill-opacity="1" fill-rule="evenodd"/></g><path fill="#2493d4" d="M 34.125 15.953125 L 27.421875 19.460938 L 13.457031 43.429688 L 20.445312 39.433594 Z M 34.125 15.953125 " fill-opacity="1" fill-rule="evenodd"/><g clip-path="url(#2f288d840c)"><path fill="#2493d4" d="M 13.457031 43.429688 L 7.5 46.839844 L 33.125 46.839844 L 31.261719 43.429688 Z M 13.457031 43.429688 " fill-opacity="1" fill-rule="evenodd"/></g><path fill="#2493d4" d="M 29.074219 39.433594 L 31.261719 43.429688 L 33.503906 39.433594 L 34.386719 37.855469 L 34.125 30.765625 Z M 29.074219 39.433594 " fill-opacity="1" fill-rule="evenodd"/><g clip-path="url(#ce7e011b95)"><path fill="#68696e" d="M 36.492188 20.015625 L 47.804688 39.433594 L 50.132812 43.429688 L 52.121094 46.839844 L 60.75 46.839844 L 54.792969 43.429688 L 34.125 7.957031 L 29.808594 8.546875 L 31.796875 11.953125 L 34.125 15.953125 Z M 36.492188 20.015625 " fill-opacity="1" fill-rule="evenodd"/></g><g clip-path="url(#167ce0ea10)"><path fill="#8b8d93" d="M 34.125 7.957031 L 34.125 1.136719 L 29.808594 8.546875 Z M 34.125 7.957031 " fill-opacity="1" fill-rule="evenodd"/></g><g fill="#68696e" fill-opacity="1"><g transform="translate(1.718265, 59.035499)"><g><path d="M 0.46875 0 C 0.476562 -0.0625 0.484375 -0.125 0.484375 -0.1875 L 0.484375 -3.453125 L 1 -3.453125 L 2.375 -1.28125 L 2.375 -3.28125 C 2.375 -3.375 2.367188 -3.429688 2.359375 -3.453125 L 3.046875 -3.453125 C 3.046875 -3.378906 3.046875 -3.300781 3.046875 -3.21875 L 3.046875 0 L 2.5 0 L 1.140625 -2.078125 L 1.140625 0 Z M 0.46875 0 "/></g></g></g><g fill="#68696e" fill-opacity="1"><g transform="translate(6.572714, 59.035499)"><g><path d="M 0.703125 0.015625 C 0.546875 0.00390625 0.367188 0 0.171875 0 L -0.03125 0 L 1.09375 -3.15625 C 1.144531 -3.300781 1.171875 -3.382812 1.171875 -3.40625 C 1.171875 -3.425781 1.171875 -3.441406 1.171875 -3.453125 C 1.285156 -3.453125 1.40625 -3.453125 1.53125 -3.453125 C 1.632812 -3.453125 1.757812 -3.453125 1.90625 -3.453125 C 1.90625 -3.441406 1.90625 -3.429688 1.90625 -3.421875 C 1.90625 -3.390625 1.929688 -3.300781 1.984375 -3.15625 L 3.140625 0 C 3.097656 0 3.054688 0 3.015625 0 C 3.015625 0 2.96875 0 2.875 0 C 2.832031 0 2.796875 0 2.765625 0 L 2.359375 0 L 2.109375 -0.75 L 0.9375 -0.75 Z M 1.90625 -1.375 L 1.515625 -2.578125 L 1.140625 -1.375 Z M 1.90625 -1.375 "/></g></g></g><g fill="#68696e" fill-opacity="1"><g transform="translate(11.006381, 59.035499)"><g><path d="M 2.53125 -3.265625 L 2.484375 -2.5 L 2.46875 -2.484375 C 2.332031 -2.679688 2.113281 -2.804688 1.8125 -2.859375 C 1.707031 -2.878906 1.609375 -2.890625 1.515625 -2.890625 C 1.429688 -2.890625 1.359375 -2.878906 1.296875 -2.859375 C 1.234375 -2.847656 1.179688 -2.828125 1.140625 -2.796875 C 1.046875 -2.734375 1 -2.65625 1 -2.5625 C 1 -2.425781 1.039062 -2.328125 1.125 -2.265625 C 1.226562 -2.179688 1.398438 -2.125 1.640625 -2.09375 C 1.878906 -2.0625 2.070312 -2.015625 2.21875 -1.953125 C 2.363281 -1.898438 2.484375 -1.832031 2.578125 -1.75 C 2.753906 -1.59375 2.84375 -1.367188 2.84375 -1.078125 C 2.84375 -0.703125 2.695312 -0.410156 2.40625 -0.203125 C 2.15625 -0.0234375 1.847656 0.0625 1.484375 0.0625 C 1.179688 0.0625 0.882812 0.00390625 0.59375 -0.109375 C 0.488281 -0.140625 0.398438 -0.179688 0.328125 -0.234375 L 0.359375 -1.109375 L 0.375 -1.109375 C 0.582031 -0.742188 0.929688 -0.5625 1.421875 -0.5625 C 1.773438 -0.5625 2.003906 -0.644531 2.109375 -0.8125 C 2.148438 -0.863281 2.171875 -0.925781 2.171875 -1 C 2.171875 -1.070312 2.160156 -1.128906 2.140625 -1.171875 C 2.117188 -1.222656 2.082031 -1.265625 2.03125 -1.296875 C 1.925781 -1.359375 1.753906 -1.398438 1.515625 -1.421875 C 1.285156 -1.441406 1.09375 -1.484375 0.9375 -1.546875 C 0.789062 -1.609375 0.671875 -1.6875 0.578125 -1.78125 C 0.421875 -1.945312 0.34375 -2.179688 0.34375 -2.484375 C 0.34375 -2.785156 0.445312 -3.03125 0.65625 -3.21875 C 0.875 -3.414062 1.171875 -3.515625 1.546875 -3.515625 C 1.921875 -3.515625 2.25 -3.429688 2.53125 -3.265625 Z M 2.53125 -3.265625 "/></g></g></g><g fill="#68696e" fill-opacity="1"><g transform="translate(15.429659, 59.035499)"><g><path d="M 2.1875 -0.625 C 2.289062 -0.625 2.363281 -0.632812 2.40625 -0.65625 L 2.421875 -0.65625 L 2.390625 0 L 0.453125 0 L 0.453125 -3.46875 C 0.492188 -3.46875 0.546875 -3.460938 0.609375 -3.453125 L 0.78125 -3.453125 C 0.90625 -3.453125 1.035156 -3.453125 1.171875 -3.453125 C 1.566406 -3.453125 1.960938 -3.457031 2.359375 -3.46875 C 2.335938 -3.320312 2.328125 -3.117188 2.328125 -2.859375 C 2.328125 -2.828125 2.328125 -2.804688 2.328125 -2.796875 C 2.234375 -2.816406 2.101562 -2.828125 1.9375 -2.828125 L 1.125 -2.828125 L 1.125 -2.171875 L 1.734375 -2.171875 C 1.921875 -2.171875 2.035156 -2.175781 2.078125 -2.1875 L 2.09375 -1.546875 C 2.007812 -1.554688 1.898438 -1.5625 1.765625 -1.5625 L 1.125 -1.5625 L 1.125 -0.625 Z M 2.1875 -0.625 "/></g></g></g><g fill="#68696e" fill-opacity="1"><g transform="translate(19.419168, 59.035499)"><g><path d="M 2.1875 -0.625 C 2.289062 -0.625 2.363281 -0.632812 2.40625 -0.65625 L 2.421875 -0.65625 L 2.390625 0 L 0.453125 0 L 0.453125 -3.46875 C 0.492188 -3.46875 0.546875 -3.460938 0.609375 -3.453125 L 0.78125 -3.453125 C 0.90625 -3.453125 1.035156 -3.453125 1.171875 -3.453125 C 1.566406 -3.453125 1.960938 -3.457031 2.359375 -3.46875 C 2.335938 -3.320312 2.328125 -3.117188 2.328125 -2.859375 C 2.328125 -2.828125 2.328125 -2.804688 2.328125 -2.796875 C 2.234375 -2.816406 2.101562 -2.828125 1.9375 -2.828125 L 1.125 -2.828125 L 1.125 -2.171875 L 1.734375 -2.171875 C 1.921875 -2.171875 2.035156 -2.175781 2.078125 -2.1875 L 2.09375 -1.546875 C 2.007812 -1.554688 1.898438 -1.5625 1.765625 -1.5625 L 1.125 -1.5625 L 1.125 -0.625 Z M 2.1875 -0.625 "/></g></g></g><g fill="#68696e" fill-opacity="1"><g transform="translate(23.408676, 59.035499)"><g><path d="M 1.140625 0.015625 C 1.054688 0.00390625 0.898438 0 0.671875 0 L 0.453125 0 L 0.453125 -3.453125 C 0.566406 -3.453125 0.691406 -3.453125 0.828125 -3.453125 C 0.960938 -3.453125 1.054688 -3.457031 1.109375 -3.46875 L 1.984375 -1.984375 L 2.8125 -3.46875 C 2.875 -3.457031 2.976562 -3.453125 3.125 -3.453125 C 3.28125 -3.453125 3.414062 -3.453125 3.53125 -3.453125 L 3.53125 0 L 3.328125 0 C 3.085938 0 2.925781 0.00390625 2.84375 0.015625 L 2.84375 -2.3125 L 2 -0.796875 L 1.140625 -2.1875 Z M 1.140625 0.015625 "/></g></g></g><g fill="#68696e" fill-opacity="1"><g transform="translate(28.73066, 59.035499)"><g><path d="M 0.78125 -1.296875 C 0.65625 -1.296875 0.550781 -1.289062 0.46875 -1.28125 L 0.46875 -1.921875 C 0.507812 -1.910156 0.625 -1.90625 0.8125 -1.90625 L 1.828125 -1.90625 C 2.015625 -1.90625 2.125 -1.910156 2.15625 -1.921875 L 2.171875 -1.28125 C 2.085938 -1.289062 1.976562 -1.296875 1.84375 -1.296875 Z M 0.78125 -1.296875 "/></g></g></g><g fill="#68696e" fill-opacity="1"><g transform="translate(32.694194, 59.035499)"><g><path d="M 0.703125 0.015625 C 0.546875 0.00390625 0.367188 0 0.171875 0 L -0.03125 0 L 1.09375 -3.15625 C 1.144531 -3.300781 1.171875 -3.382812 1.171875 -3.40625 C 1.171875 -3.425781 1.171875 -3.441406 1.171875 -3.453125 C 1.285156 -3.453125 1.40625 -3.453125 1.53125 -3.453125 C 1.632812 -3.453125 1.757812 -3.453125 1.90625 -3.453125 C 1.90625 -3.441406 1.90625 -3.429688 1.90625 -3.421875 C 1.90625 -3.390625 1.929688 -3.300781 1.984375 -3.15625 L 3.140625 0 C 3.097656 0 3.054688 0 3.015625 0 C 3.015625 0 2.96875 0 2.875 0 C 2.832031 0 2.796875 0 2.765625 0 L 2.359375 0 L 2.109375 -0.75 L 0.9375 -0.75 Z M 1.90625 -1.375 L 1.515625 -2.578125 L 1.140625 -1.375 Z M 1.90625 -1.375 "/></g></g></g><g fill="#68696e" fill-opacity="1"><g transform="translate(37.12786, 59.035499)"><g><path d="M 0.953125 0 C 0.703125 0 0.535156 0.00390625 0.453125 0.015625 L 0.453125 -3.46875 C 0.492188 -3.457031 0.578125 -3.453125 0.703125 -3.453125 C 0.835938 -3.453125 0.988281 -3.453125 1.15625 -3.453125 L 1.15625 -0.625 L 1.703125 -0.625 C 1.859375 -0.625 1.976562 -0.628906 2.0625 -0.640625 C 2.050781 -0.234375 2.046875 -0.0195312 2.046875 0 L 2.046875 0.015625 C 1.878906 0.00390625 1.597656 0 1.203125 0 Z M 0.953125 0 "/></g></g></g><g fill="#68696e" fill-opacity="1"><g transform="translate(40.673212, 59.035499)"><g><path d="M 0.78125 -1.296875 C 0.65625 -1.296875 0.550781 -1.289062 0.46875 -1.28125 L 0.46875 -1.921875 C 0.507812 -1.910156 0.625 -1.90625 0.8125 -1.90625 L 1.828125 -1.90625 C 2.015625 -1.90625 2.125 -1.910156 2.15625 -1.921875 L 2.171875 -1.28125 C 2.085938 -1.289062 1.976562 -1.296875 1.84375 -1.296875 Z M 0.78125 -1.296875 "/></g></g></g><g fill="#68696e" fill-opacity="1"><g transform="translate(44.636747, 59.035499)"><g><path d="M 1.5625 -1.34375 C 1.507812 -1.332031 1.453125 -1.328125 1.390625 -1.328125 C 1.335938 -1.328125 1.253906 -1.332031 1.140625 -1.34375 L 1.140625 0 L 0.453125 0 L 0.453125 -3.46875 C 0.691406 -3.5 0.988281 -3.515625 1.34375 -3.515625 C 1.820312 -3.515625 2.175781 -3.425781 2.40625 -3.25 C 2.644531 -3.070312 2.765625 -2.796875 2.765625 -2.421875 C 2.765625 -2.140625 2.65625 -1.894531 2.4375 -1.6875 C 2.375 -1.625 2.296875 -1.566406 2.203125 -1.515625 L 2.734375 -0.40625 C 2.835938 -0.175781 2.914062 -0.0390625 2.96875 0 L 2.953125 0.015625 C 2.785156 -0.00390625 2.519531 -0.00390625 2.15625 0.015625 Z M 1.390625 -2.90625 C 1.296875 -2.90625 1.210938 -2.898438 1.140625 -2.890625 L 1.140625 -1.90625 C 1.222656 -1.882812 1.320312 -1.875 1.4375 -1.875 C 1.550781 -1.875 1.644531 -1.882812 1.71875 -1.90625 C 1.800781 -1.925781 1.867188 -1.957031 1.921875 -2 C 2.046875 -2.09375 2.109375 -2.226562 2.109375 -2.40625 C 2.109375 -2.59375 2.046875 -2.722656 1.921875 -2.796875 C 1.796875 -2.867188 1.617188 -2.90625 1.390625 -2.90625 Z M 1.390625 -2.90625 "/></g></g></g><g fill="#68696e" fill-opacity="1"><g transform="translate(49.060024, 59.035499)"><g><path d="M 0.734375 -0.40625 C 0.578125 -0.5625 0.453125 -0.742188 0.359375 -0.953125 C 0.265625 -1.160156 0.21875 -1.390625 0.21875 -1.640625 C 0.21875 -1.890625 0.257812 -2.128906 0.34375 -2.359375 C 0.425781 -2.585938 0.546875 -2.785156 0.703125 -2.953125 C 0.867188 -3.128906 1.0625 -3.265625 1.28125 -3.359375 C 1.5 -3.460938 1.75 -3.515625 2.03125 -3.515625 C 2.507812 -3.515625 2.910156 -3.363281 3.234375 -3.0625 C 3.585938 -2.738281 3.765625 -2.304688 3.765625 -1.765625 C 3.765625 -1.234375 3.582031 -0.789062 3.21875 -0.4375 C 3 -0.21875 2.738281 -0.0703125 2.4375 0 C 2.28125 0.0390625 2.097656 0.0625 1.890625 0.0625 C 1.691406 0.0625 1.488281 0.0195312 1.28125 -0.0625 C 1.070312 -0.144531 0.890625 -0.257812 0.734375 -0.40625 Z M 0.9375 -1.6875 C 0.9375 -1.519531 0.960938 -1.367188 1.015625 -1.234375 C 1.078125 -1.097656 1.15625 -0.984375 1.25 -0.890625 C 1.445312 -0.679688 1.707031 -0.578125 2.03125 -0.578125 C 2.332031 -0.578125 2.570312 -0.675781 2.75 -0.875 C 2.9375 -1.082031 3.03125 -1.359375 3.03125 -1.703125 C 3.03125 -2.035156 2.941406 -2.3125 2.765625 -2.53125 C 2.578125 -2.757812 2.316406 -2.875 1.984375 -2.875 C 1.660156 -2.875 1.398438 -2.753906 1.203125 -2.515625 C 1.023438 -2.296875 0.9375 -2.019531 0.9375 -1.6875 Z M 0.9375 -1.6875 "/></g></g></g><g fill="#68696e" fill-opacity="1"><g transform="translate(54.371617, 59.035499)"><g><path d="M 2.40625 -3.46875 C 2.519531 -3.457031 2.609375 -3.453125 2.671875 -3.453125 L 2.890625 -3.453125 C 2.960938 -3.453125 3.039062 -3.457031 3.125 -3.46875 L 3.125 -1.328125 C 3.125 -0.898438 2.992188 -0.554688 2.734375 -0.296875 C 2.492188 -0.0546875 2.1875 0.0625 1.8125 0.0625 C 1.414062 0.0625 1.09375 -0.0390625 0.84375 -0.25 C 0.5625 -0.488281 0.421875 -0.828125 0.421875 -1.265625 L 0.421875 -3.46875 C 0.566406 -3.457031 0.703125 -3.453125 0.828125 -3.453125 C 0.953125 -3.453125 1.054688 -3.457031 1.140625 -3.46875 L 1.140625 -1.234375 C 1.140625 -1.015625 1.207031 -0.84375 1.34375 -0.71875 C 1.46875 -0.613281 1.625 -0.5625 1.8125 -0.5625 C 2.082031 -0.5625 2.265625 -0.703125 2.359375 -0.984375 C 2.390625 -1.085938 2.40625 -1.210938 2.40625 -1.359375 Z M 2.40625 -3.46875 "/></g></g></g><g fill="#68696e" fill-opacity="1"><g transform="translate(59.249443, 59.035499)"><g><path d="M 1.28125 0.0625 C 1 0.0625 0.738281 0.0390625 0.5 0 L 0.5 -3.46875 C 0.726562 -3.5 0.992188 -3.515625 1.296875 -3.515625 C 1.597656 -3.515625 1.867188 -3.472656 2.109375 -3.390625 C 2.359375 -3.304688 2.5625 -3.191406 2.71875 -3.046875 C 3.050781 -2.734375 3.21875 -2.304688 3.21875 -1.765625 C 3.21875 -1.148438 3.035156 -0.679688 2.671875 -0.359375 C 2.335938 -0.078125 1.875 0.0625 1.28125 0.0625 Z M 1.171875 -0.5625 C 1.285156 -0.539062 1.394531 -0.53125 1.5 -0.53125 C 1.613281 -0.53125 1.734375 -0.550781 1.859375 -0.59375 C 1.992188 -0.644531 2.109375 -0.71875 2.203125 -0.8125 C 2.410156 -1.007812 2.515625 -1.296875 2.515625 -1.671875 C 2.515625 -2.285156 2.289062 -2.664062 1.84375 -2.8125 C 1.6875 -2.851562 1.515625 -2.875 1.328125 -2.875 L 1.25 -2.875 C 1.226562 -2.875 1.203125 -2.875 1.171875 -2.875 Z M 1.171875 -0.5625 "/></g></g></g><g fill="#68696e" fill-opacity="1"><g transform="translate(64.116878, 59.035499)"><g><path d="M 1.140625 0.015625 C 0.972656 0.00390625 0.78125 0 0.5625 0 L 0.46875 0 L 0.46875 -3.46875 C 0.582031 -3.457031 0.660156 -3.453125 0.703125 -3.453125 L 0.8125 -3.453125 C 0.945312 -3.453125 1.054688 -3.457031 1.140625 -3.46875 L 1.140625 -2.09375 L 2.359375 -2.09375 L 2.359375 -3.46875 C 2.503906 -3.457031 2.644531 -3.453125 2.78125 -3.453125 C 2.914062 -3.453125 3.003906 -3.457031 3.046875 -3.46875 L 3.046875 0.015625 C 2.960938 0.00390625 2.796875 0 2.546875 0 L 2.359375 0 L 2.359375 -1.46875 L 1.140625 -1.46875 Z M 1.140625 0.015625 "/></g></g></g><g fill="#68696e" fill-opacity="1"><g transform="translate(68.984313, 59.035499)"><g><path d="M 0.703125 0.015625 C 0.546875 0.00390625 0.367188 0 0.171875 0 L -0.03125 0 L 1.09375 -3.15625 C 1.144531 -3.300781 1.171875 -3.382812 1.171875 -3.40625 C 1.171875 -3.425781 1.171875 -3.441406 1.171875 -3.453125 C 1.285156 -3.453125 1.40625 -3.453125 1.53125 -3.453125 C 1.632812 -3.453125 1.757812 -3.453125 1.90625 -3.453125 C 1.90625 -3.441406 1.90625 -3.429688 1.90625 -3.421875 C 1.90625 -3.390625 1.929688 -3.300781 1.984375 -3.15625 L 3.140625 0 C 3.097656 0 3.054688 0 3.015625 0 C 3.015625 0 2.96875 0 2.875 0 C 2.832031 0 2.796875 0 2.765625 0 L 2.359375 0 L 2.109375 -0.75 L 0.9375 -0.75 Z M 1.90625 -1.375 L 1.515625 -2.578125 L 1.140625 -1.375 Z M 1.90625 -1.375 "/></g></g></g></svg>