<svg xmlns="http://www.w3.org/2000/svg" xmlns:xlink="http://www.w3.org/1999/xlink" width="500" zoomAndPan="magnify" viewBox="0 0 375 374.999991" height="500" preserveAspectRatio="xMidYMid meet" version="1.0"><defs><g/><clipPath id="cb3d2eb16a"><path d="M 37.5 80 L 192 80 L 192 235 L 37.5 235 Z M 37.5 80 " clip-rule="nonzero"/></clipPath><clipPath id="ef74cbf3de"><path d="M 148 5.570312 L 302.25 5.570312 L 302.25 235 L 148 235 Z M 148 5.570312 " clip-rule="nonzero"/></clipPath><clipPath id="3fd2359da8"><path d="M 37.5 217 L 165 217 L 165 235 L 37.5 235 Z M 37.5 217 " clip-rule="nonzero"/></clipPath><clipPath id="4dafecdcc5"><path d="M 148 39 L 302.25 39 L 302.25 235 L 148 235 Z M 148 39 " clip-rule="nonzero"/></clipPath><clipPath id="6830862b1b"><path d="M 148 5.570312 L 170 5.570312 L 170 43 L 148 43 Z M 148 5.570312 " clip-rule="nonzero"/></clipPath></defs><g clip-path="url(#cb3d2eb16a)"><path fill="#38b6ff" d="M 169.871094 80.003906 L 126.964844 80.003906 L 37.5 234.9375 L 166.21875 234.9375 L 191.328125 191.453125 L 173.527344 160.636719 L 169.871094 154.304688 L 166.21875 160.636719 L 144.761719 197.785156 L 101.863281 197.785156 Z M 169.871094 80.003906 " fill-opacity="1" fill-rule="evenodd"/></g><g clip-path="url(#ef74cbf3de)"><path fill="#83858c" d="M 302.25 234.9375 L 236.0625 120.316406 L 169.871094 5.703125 L 148.421875 42.859375 L 158.292969 59.953125 L 169.871094 80.003906 L 181.644531 100.386719 L 237.886719 197.785156 L 249.464844 217.835938 L 259.34375 234.9375 Z M 302.25 234.9375 " fill-opacity="1" fill-rule="evenodd"/></g><path fill="#2493d4" d="M 169.871094 80.003906 L 136.554688 97.601562 L 67.125 217.835938 L 101.863281 197.785156 Z M 169.871094 80.003906 " fill-opacity="1" fill-rule="evenodd"/><g clip-path="url(#3fd2359da8)"><path fill="#2493d4" d="M 67.125 217.835938 L 37.5 234.9375 L 164.910156 234.9375 L 155.636719 217.835938 Z M 67.125 217.835938 " fill-opacity="1" fill-rule="evenodd"/></g><path fill="#2493d4" d="M 144.761719 197.785156 L 155.636719 217.835938 L 166.785156 197.785156 L 171.183594 189.875 L 169.871094 154.304688 Z M 144.761719 197.785156 " fill-opacity="1" fill-rule="evenodd"/><g clip-path="url(#4dafecdcc5)"><path fill="#68696e" d="M 181.644531 100.386719 L 237.886719 197.785156 L 249.464844 217.835938 L 259.34375 234.9375 L 302.25 234.9375 L 272.625 217.835938 L 169.871094 39.902344 L 148.421875 42.859375 L 158.292969 59.953125 L 169.871094 80.003906 Z M 181.644531 100.386719 " fill-opacity="1" fill-rule="evenodd"/></g><g clip-path="url(#6830862b1b)"><path fill="#8b8d93" d="M 169.871094 39.902344 L 169.871094 5.703125 L 148.421875 42.859375 Z M 169.871094 39.902344 " fill-opacity="1" fill-rule="evenodd"/></g><g fill="#68696e" fill-opacity="1"><g transform="translate(8.591322, 295.177493)"><g><path d="M 2.34375 0 C 2.394531 -0.289062 2.421875 -0.609375 2.421875 -0.953125 L 2.421875 -17.265625 L 5.03125 -17.265625 L 11.90625 -6.4375 L 11.90625 -16.390625 C 11.90625 -16.859375 11.863281 -17.148438 11.78125 -17.265625 L 15.28125 -17.265625 C 15.238281 -16.921875 15.21875 -16.539062 15.21875 -16.125 L 15.21875 0 L 12.515625 0 L 5.734375 -10.40625 L 5.734375 0 Z M 2.34375 0 "/></g></g></g><g fill="#68696e" fill-opacity="1"><g transform="translate(32.863568, 295.177493)"><g><path d="M 3.5 0.109375 C 2.75 0.0351562 1.878906 0 0.890625 0 L -0.140625 0 L 5.5 -15.828125 C 5.75 -16.535156 5.875 -16.945312 5.875 -17.0625 C 5.875 -17.1875 5.875 -17.257812 5.875 -17.28125 L 5.875 -17.3125 C 6.4375 -17.28125 7.035156 -17.265625 7.671875 -17.265625 C 8.191406 -17.265625 8.816406 -17.273438 9.546875 -17.296875 L 9.5625 -17.265625 C 9.539062 -17.234375 9.53125 -17.1875 9.53125 -17.125 C 9.53125 -16.957031 9.660156 -16.519531 9.921875 -15.8125 L 15.6875 0.03125 C 15.507812 0.03125 15.304688 0.03125 15.078125 0.03125 C 15.078125 0.03125 14.851562 0.0195312 14.40625 0 C 14.1875 0 13.988281 0 13.8125 0 L 11.796875 0 L 10.578125 -3.734375 L 4.71875 -3.734375 Z M 9.5625 -6.859375 L 7.609375 -12.890625 L 5.703125 -6.859375 Z M 9.5625 -6.859375 "/></g></g></g><g fill="#68696e" fill-opacity="1"><g transform="translate(55.031905, 295.177493)"><g><path d="M 12.65625 -16.3125 L 12.40625 -12.484375 L 12.328125 -12.46875 C 11.679688 -13.425781 10.585938 -14.046875 9.046875 -14.328125 C 8.566406 -14.429688 8.101562 -14.484375 7.65625 -14.484375 C 7.207031 -14.484375 6.820312 -14.441406 6.5 -14.359375 C 6.1875 -14.285156 5.921875 -14.175781 5.703125 -14.03125 C 5.222656 -13.71875 4.984375 -13.304688 4.984375 -12.796875 C 4.984375 -12.140625 5.191406 -11.648438 5.609375 -11.328125 C 6.128906 -10.921875 6.988281 -10.640625 8.1875 -10.484375 C 9.394531 -10.328125 10.363281 -10.109375 11.09375 -9.828125 C 11.820312 -9.554688 12.414062 -9.207031 12.875 -8.78125 C 13.757812 -7.976562 14.203125 -6.851562 14.203125 -5.40625 C 14.203125 -3.5 13.484375 -2.03125 12.046875 -1 C 10.816406 -0.113281 9.269531 0.328125 7.40625 0.328125 C 5.894531 0.328125 4.40625 0.0390625 2.9375 -0.53125 C 2.445312 -0.71875 2.019531 -0.9375 1.65625 -1.1875 L 1.8125 -5.53125 L 1.859375 -5.578125 C 2.929688 -3.722656 4.691406 -2.796875 7.140625 -2.796875 C 8.878906 -2.796875 10.03125 -3.210938 10.59375 -4.046875 C 10.78125 -4.335938 10.875 -4.65625 10.875 -5 C 10.875 -5.351562 10.816406 -5.644531 10.703125 -5.875 C 10.597656 -6.101562 10.414062 -6.300781 10.15625 -6.46875 C 9.65625 -6.789062 8.8125 -7.007812 7.625 -7.125 C 6.4375 -7.238281 5.460938 -7.453125 4.703125 -7.765625 C 3.953125 -8.078125 3.351562 -8.460938 2.90625 -8.921875 C 2.09375 -9.753906 1.6875 -10.914062 1.6875 -12.40625 C 1.6875 -13.945312 2.226562 -15.191406 3.3125 -16.140625 C 4.40625 -17.109375 5.882812 -17.59375 7.75 -17.59375 C 9.625 -17.59375 11.257812 -17.164062 12.65625 -16.3125 Z M 12.65625 -16.3125 "/></g></g></g><g fill="#68696e" fill-opacity="1"><g transform="translate(77.148297, 295.177493)"><g><path d="M 10.921875 -3.109375 C 11.453125 -3.109375 11.820312 -3.160156 12.03125 -3.265625 L 12.09375 -3.265625 L 11.953125 0 L 2.234375 0 L 2.234375 -17.359375 C 2.460938 -17.335938 2.722656 -17.328125 3.015625 -17.328125 L 3.921875 -17.296875 C 4.523438 -17.273438 5.179688 -17.265625 5.890625 -17.265625 C 7.878906 -17.265625 9.84375 -17.300781 11.78125 -17.375 C 11.6875 -16.613281 11.640625 -15.597656 11.640625 -14.328125 C 11.640625 -14.179688 11.644531 -14.078125 11.65625 -14.015625 L 11.640625 -13.96875 C 11.179688 -14.101562 10.539062 -14.171875 9.71875 -14.171875 L 5.625 -14.171875 L 5.625 -10.859375 L 8.703125 -10.859375 C 9.648438 -10.859375 10.222656 -10.882812 10.421875 -10.9375 L 10.453125 -7.71875 C 10.035156 -7.769531 9.5 -7.796875 8.84375 -7.796875 L 5.625 -7.796875 L 5.625 -3.109375 Z M 10.921875 -3.109375 "/></g></g></g><g fill="#68696e" fill-opacity="1"><g transform="translate(97.095839, 295.177493)"><g><path d="M 10.921875 -3.109375 C 11.453125 -3.109375 11.820312 -3.160156 12.03125 -3.265625 L 12.09375 -3.265625 L 11.953125 0 L 2.234375 0 L 2.234375 -17.359375 C 2.460938 -17.335938 2.722656 -17.328125 3.015625 -17.328125 L 3.921875 -17.296875 C 4.523438 -17.273438 5.179688 -17.265625 5.890625 -17.265625 C 7.878906 -17.265625 9.84375 -17.300781 11.78125 -17.375 C 11.6875 -16.613281 11.640625 -15.597656 11.640625 -14.328125 C 11.640625 -14.179688 11.644531 -14.078125 11.65625 -14.015625 L 11.640625 -13.96875 C 11.179688 -14.101562 10.539062 -14.171875 9.71875 -14.171875 L 5.625 -14.171875 L 5.625 -10.859375 L 8.703125 -10.859375 C 9.648438 -10.859375 10.222656 -10.882812 10.421875 -10.9375 L 10.453125 -7.71875 C 10.035156 -7.769531 9.5 -7.796875 8.84375 -7.796875 L 5.625 -7.796875 L 5.625 -3.109375 Z M 10.921875 -3.109375 "/></g></g></g><g fill="#68696e" fill-opacity="1"><g transform="translate(117.043381, 295.177493)"><g><path d="M 5.734375 0.078125 C 5.316406 0.0234375 4.519531 0 3.34375 0 L 2.296875 0 L 2.296875 -17.328125 C 2.847656 -17.285156 3.457031 -17.265625 4.125 -17.265625 C 4.789062 -17.265625 5.265625 -17.300781 5.546875 -17.375 L 9.90625 -9.953125 L 14.109375 -17.375 C 14.378906 -17.300781 14.90625 -17.265625 15.6875 -17.265625 C 16.46875 -17.265625 17.132812 -17.285156 17.6875 -17.328125 L 17.6875 0 L 16.640625 0 C 15.460938 0 14.664062 0.0234375 14.25 0.078125 L 14.25 -11.5625 L 10 -3.953125 L 5.734375 -10.953125 Z M 5.734375 0.078125 "/></g></g></g><g fill="#68696e" fill-opacity="1"><g transform="translate(143.653299, 295.177493)"><g><path d="M 3.921875 -6.5 C 3.265625 -6.5 2.726562 -6.472656 2.3125 -6.421875 L 2.34375 -9.640625 C 2.550781 -9.585938 3.125 -9.5625 4.0625 -9.5625 L 9.109375 -9.5625 C 10.066406 -9.5625 10.640625 -9.585938 10.828125 -9.640625 L 10.875 -6.421875 C 10.457031 -6.472656 9.921875 -6.5 9.265625 -6.5 Z M 3.921875 -6.5 "/></g></g></g><g fill="#68696e" fill-opacity="1"><g transform="translate(163.470971, 295.177493)"><g><path d="M 3.5 0.109375 C 2.75 0.0351562 1.878906 0 0.890625 0 L -0.140625 0 L 5.5 -15.828125 C 5.75 -16.535156 5.875 -16.945312 5.875 -17.0625 C 5.875 -17.1875 5.875 -17.257812 5.875 -17.28125 L 5.875 -17.3125 C 6.4375 -17.28125 7.035156 -17.265625 7.671875 -17.265625 C 8.191406 -17.265625 8.816406 -17.273438 9.546875 -17.296875 L 9.5625 -17.265625 C 9.539062 -17.234375 9.53125 -17.1875 9.53125 -17.125 C 9.53125 -16.957031 9.660156 -16.519531 9.921875 -15.8125 L 15.6875 0.03125 C 15.507812 0.03125 15.304688 0.03125 15.078125 0.03125 C 15.078125 0.03125 14.851562 0.0195312 14.40625 0 C 14.1875 0 13.988281 0 13.8125 0 L 11.796875 0 L 10.578125 -3.734375 L 4.71875 -3.734375 Z M 9.5625 -6.859375 L 7.609375 -12.890625 L 5.703125 -6.859375 Z M 9.5625 -6.859375 "/></g></g></g><g fill="#68696e" fill-opacity="1"><g transform="translate(185.639304, 295.177493)"><g><path d="M 4.765625 0 C 3.492188 0 2.648438 0.0234375 2.234375 0.078125 L 2.234375 -17.34375 C 2.441406 -17.289062 2.867188 -17.265625 3.515625 -17.265625 C 4.171875 -17.265625 4.929688 -17.285156 5.796875 -17.328125 L 5.796875 -3.109375 L 8.5 -3.109375 C 9.269531 -3.109375 9.890625 -3.132812 10.359375 -3.1875 C 10.296875 -1.164062 10.265625 -0.113281 10.265625 -0.03125 L 10.265625 0.09375 C 9.421875 0.03125 8 0 6 0 Z M 4.765625 0 "/></g></g></g><g fill="#68696e" fill-opacity="1"><g transform="translate(203.366066, 295.177493)"><g><path d="M 3.921875 -6.5 C 3.265625 -6.5 2.726562 -6.472656 2.3125 -6.421875 L 2.34375 -9.640625 C 2.550781 -9.585938 3.125 -9.5625 4.0625 -9.5625 L 9.109375 -9.5625 C 10.066406 -9.5625 10.640625 -9.585938 10.828125 -9.640625 L 10.875 -6.421875 C 10.457031 -6.472656 9.921875 -6.5 9.265625 -6.5 Z M 3.921875 -6.5 "/></g></g></g><g fill="#68696e" fill-opacity="1"><g transform="translate(223.183737, 295.177493)"><g><path d="M 7.8125 -6.71875 C 7.550781 -6.695312 7.273438 -6.6875 6.984375 -6.6875 C 6.691406 -6.6875 6.253906 -6.707031 5.671875 -6.75 L 5.671875 0 L 2.234375 0 L 2.234375 -17.359375 C 3.441406 -17.515625 4.929688 -17.59375 6.703125 -17.59375 C 9.109375 -17.59375 10.898438 -17.148438 12.078125 -16.265625 C 13.265625 -15.378906 13.859375 -14.007812 13.859375 -12.15625 C 13.859375 -10.71875 13.316406 -9.488281 12.234375 -8.46875 C 11.878906 -8.132812 11.472656 -7.847656 11.015625 -7.609375 L 13.65625 -2.03125 C 14.175781 -0.875 14.578125 -0.1875 14.859375 0.03125 L 14.796875 0.09375 C 13.953125 -0.0390625 12.628906 -0.0351562 10.828125 0.109375 Z M 6.953125 -14.53125 C 6.503906 -14.53125 6.078125 -14.507812 5.671875 -14.46875 L 5.671875 -9.5 C 6.097656 -9.445312 6.597656 -9.421875 7.171875 -9.421875 C 7.742188 -9.421875 8.222656 -9.46875 8.609375 -9.5625 C 8.992188 -9.664062 9.332031 -9.820312 9.625 -10.03125 C 10.238281 -10.488281 10.546875 -11.175781 10.546875 -12.09375 C 10.546875 -13.007812 10.222656 -13.65625 9.578125 -14.03125 C 8.984375 -14.363281 8.109375 -14.53125 6.953125 -14.53125 Z M 6.953125 -14.53125 "/></g></g></g><g fill="#68696e" fill-opacity="1"><g transform="translate(245.300123, 295.177493)"><g><path d="M 3.640625 -2.046875 C 2.859375 -2.804688 2.238281 -3.710938 1.78125 -4.765625 C 1.332031 -5.816406 1.109375 -6.972656 1.109375 -8.234375 C 1.109375 -9.492188 1.316406 -10.6875 1.734375 -11.8125 C 2.160156 -12.9375 2.765625 -13.925781 3.546875 -14.78125 C 4.335938 -15.644531 5.289062 -16.328125 6.40625 -16.828125 C 7.53125 -17.335938 8.785156 -17.59375 10.171875 -17.59375 C 12.554688 -17.59375 14.566406 -16.835938 16.203125 -15.328125 C 17.953125 -13.722656 18.828125 -11.550781 18.828125 -8.8125 C 18.828125 -6.164062 17.925781 -3.960938 16.125 -2.203125 C 15.019531 -1.117188 13.703125 -0.375 12.171875 0.03125 C 11.410156 0.226562 10.523438 0.328125 9.515625 0.328125 C 8.515625 0.328125 7.484375 0.117188 6.421875 -0.296875 C 5.359375 -0.710938 4.429688 -1.296875 3.640625 -2.046875 Z M 4.71875 -8.421875 C 4.71875 -7.609375 4.847656 -6.863281 5.109375 -6.1875 C 5.378906 -5.519531 5.753906 -4.941406 6.234375 -4.453125 C 7.242188 -3.429688 8.546875 -2.921875 10.140625 -2.921875 C 11.648438 -2.921875 12.867188 -3.410156 13.796875 -4.390625 C 14.722656 -5.398438 15.1875 -6.78125 15.1875 -8.53125 C 15.1875 -10.175781 14.742188 -11.546875 13.859375 -12.640625 C 12.890625 -13.816406 11.570312 -14.40625 9.90625 -14.40625 C 8.289062 -14.40625 7.003906 -13.8125 6.046875 -12.625 C 5.160156 -11.507812 4.71875 -10.109375 4.71875 -8.421875 Z M 4.71875 -8.421875 "/></g></g></g><g fill="#68696e" fill-opacity="1"><g transform="translate(271.858093, 295.177493)"><g><path d="M 12.078125 -17.328125 C 12.609375 -17.285156 13.050781 -17.265625 13.40625 -17.265625 L 14.484375 -17.265625 C 14.847656 -17.265625 15.234375 -17.300781 15.640625 -17.375 L 15.640625 -6.640625 C 15.640625 -4.503906 14.992188 -2.789062 13.703125 -1.5 C 12.484375 -0.28125 10.953125 0.328125 9.109375 0.328125 C 7.085938 0.328125 5.453125 -0.195312 4.203125 -1.25 C 2.804688 -2.425781 2.109375 -4.125 2.109375 -6.34375 L 2.109375 -17.328125 C 2.828125 -17.285156 3.503906 -17.265625 4.140625 -17.265625 C 4.785156 -17.265625 5.3125 -17.300781 5.71875 -17.375 L 5.71875 -6.171875 C 5.71875 -5.078125 6.050781 -4.226562 6.71875 -3.625 C 7.34375 -3.070312 8.125 -2.796875 9.0625 -2.796875 C 10.445312 -2.796875 11.367188 -3.503906 11.828125 -4.921875 C 11.992188 -5.429688 12.078125 -6.0625 12.078125 -6.8125 Z M 12.078125 -17.328125 "/></g></g></g><g fill="#68696e" fill-opacity="1"><g transform="translate(296.247219, 295.177493)"><g><path d="M 6.4375 0.328125 C 5.039062 0.328125 3.722656 0.210938 2.484375 -0.015625 L 2.484375 -17.390625 C 3.617188 -17.523438 4.941406 -17.59375 6.453125 -17.59375 C 7.960938 -17.59375 9.332031 -17.382812 10.5625 -16.96875 C 11.789062 -16.5625 12.816406 -15.976562 13.640625 -15.21875 C 15.296875 -13.695312 16.125 -11.5625 16.125 -8.8125 C 16.125 -5.738281 15.195312 -3.40625 13.34375 -1.8125 C 11.6875 -0.382812 9.382812 0.328125 6.4375 0.328125 Z M 5.859375 -2.84375 C 6.421875 -2.738281 6.984375 -2.6875 7.546875 -2.6875 C 8.109375 -2.6875 8.710938 -2.796875 9.359375 -3.015625 C 10.015625 -3.234375 10.578125 -3.578125 11.046875 -4.046875 C 12.066406 -5.035156 12.578125 -6.472656 12.578125 -8.359375 C 12.578125 -11.460938 11.445312 -13.367188 9.1875 -14.078125 C 8.445312 -14.304688 7.585938 -14.421875 6.609375 -14.421875 L 6.265625 -14.421875 C 6.128906 -14.421875 5.992188 -14.414062 5.859375 -14.40625 Z M 5.859375 -2.84375 "/></g></g></g><g fill="#68696e" fill-opacity="1"><g transform="translate(320.584397, 295.177493)"><g><path d="M 5.734375 0.078125 C 4.910156 0.0234375 3.925781 0 2.78125 0 L 2.359375 0 L 2.359375 -17.328125 C 2.898438 -17.285156 3.28125 -17.265625 3.5 -17.265625 L 4.03125 -17.265625 C 4.71875 -17.265625 5.285156 -17.300781 5.734375 -17.375 L 5.734375 -10.453125 L 11.84375 -10.453125 L 11.84375 -17.328125 C 12.5625 -17.285156 13.257812 -17.265625 13.9375 -17.265625 C 14.613281 -17.265625 15.039062 -17.300781 15.21875 -17.375 L 15.21875 0.078125 C 14.800781 0.0234375 13.976562 0 12.75 0 L 11.84375 0 L 11.84375 -7.34375 L 5.734375 -7.34375 Z M 5.734375 0.078125 "/></g></g></g><g fill="#68696e" fill-opacity="1"><g transform="translate(344.921575, 295.177493)"><g><path d="M 3.5 0.109375 C 2.75 0.0351562 1.878906 0 0.890625 0 L -0.140625 0 L 5.5 -15.828125 C 5.75 -16.535156 5.875 -16.945312 5.875 -17.0625 C 5.875 -17.1875 5.875 -17.257812 5.875 -17.28125 L 5.875 -17.3125 C 6.4375 -17.28125 7.035156 -17.265625 7.671875 -17.265625 C 8.191406 -17.265625 8.816406 -17.273438 9.546875 -17.296875 L 9.5625 -17.265625 C 9.539062 -17.234375 9.53125 -17.1875 9.53125 -17.125 C 9.53125 -16.957031 9.660156 -16.519531 9.921875 -15.8125 L 15.6875 0.03125 C 15.507812 0.03125 15.304688 0.03125 15.078125 0.03125 C 15.078125 0.03125 14.851562 0.0195312 14.40625 0 C 14.1875 0 13.988281 0 13.8125 0 L 11.796875 0 L 10.578125 -3.734375 L 4.71875 -3.734375 Z M 9.5625 -6.859375 L 7.609375 -12.890625 L 5.703125 -6.859375 Z M 9.5625 -6.859375 "/></g></g></g></svg>